<?xml version="1.0" standalone="no"?><!DOCTYPE svg PUBLIC "-//W3C//DTD SVG 1.1//EN" "http://www.w3.org/Graphics/SVG/1.1/DTD/svg11.dtd"><svg t="1740041902219" class="icon" viewBox="0 0 1024 1024" version="1.1" xmlns="http://www.w3.org/2000/svg" p-id="4464" xmlns:xlink="http://www.w3.org/1999/xlink" width="16" height="16"><path d="M262.691561 122.35997s-86.607916-15.294996-107.829724 76.857356c-22.368932 96.740851 51.620612 89.284541 51.620613 89.284541L262.691561 122.35997z" fill="#E0DEDC" p-id="4465"></path><path d="M177.421957 164.803585c-16.250934-0.573562-29.634055 49.326363-25.045557 67.297983 1.720687 6.691561 19.118745 12.04481 26.766244-7.073935 5.544436-13.956684 18.545183-59.650485-1.720687-60.224048z" fill="#040000" p-id="4466"></path><path d="M165.377147 179.716206c-3.632562-1.147125-7.647498 8.603435-8.98581 12.04481-3.441374 10.132935 4.014937 9.75056 8.412248 3.823749 2.294249-3.058999 4.206124-14.530246 0.573562-15.868559z" fill="#FFFFFF" p-id="4467"></path><path d="M220.247946 932.612397c9.941748 13.956684 79.533981 12.235997 88.137416-2.485437 8.029873-13.574309-40.914115-28.486931-58.694548-30.78118-26.957431-3.441374-36.516804 23.133682-29.442868 33.266617zM802.796117 852.696042c9.941748 13.956684 56.209111 7.073936 65.003734-7.647498 8.029873-13.574309-17.780433-23.324869-35.560867-25.619119-26.957431-3.441374-36.516804 23.133682-29.442867 33.266617z" fill="#B8937F" p-id="4468"></path><path d="M494.219567 25.619119S146.067214 8.603435 186.407767 441.643017c12.04481 130.007468-83.740105 349.490665 55.826736 458.467513 0 0 195.20239 117.962659 456.746826 79.342793 38.237491-5.735624 86.990291-19.118745 120.830471-109.168035 42.634802-113.756535 12.618372-232.292756-25.236744-316.415236-42.634802-95.020164-40.53174-202.276326-37.472741-220.439133 52.002987-306.2823-262.882748-307.8118-262.882748-307.8118z" fill="#8CC5E7" p-id="4469"></path><path d="M671.450336 74.180732c36.707991-9.559373 62.32711-20.074683 82.975355-9.559373 58.312173 30.01643-9.368185 86.799104-23.707244 97.505601-21.03062 16.059746-85.843167-81.06348-59.268111-87.946228z" fill="#8CC5E7" p-id="4470"></path><path d="M716.761763 77.430919c-35.943241 8.029873-37.472741 26.192681-28.295744 31.354742 5.353249 3.058999 1.5295-15.486184 26.001494-7.265123 9.941748 3.250187-4.779686 27.339806 23.133682 0.382375 14.912621-14.721434-13.000747-26.192681-20.839432-24.471994z" fill="#3C89BF" p-id="4471"></path><path d="M395.375653 55.826736c-43.781927 3.250187-145.493652 54.488424-95.593726 180.098581 17.398058 43.973114 199.982076 19.692308 202.276325-103.241224 0.76475-51.238237-68.062733-79.725168-106.682599-76.857357z" fill="#E0DEDC" p-id="4472"></path><path d="M341.843167 99.035101C300.929052 102.667662 290.987304 160.597461 306.2823 174.17177c8.603435 7.647498 38.428678 16.442121 54.488424-36.325616 5.162061-16.824496-3.823749-40.340553-18.927557-38.811053z" fill="#040000" p-id="4473"></path><path d="M326.165795 109.741598c-5.926811-1.720687-16.824496 13.383122-13.574309 19.692308 1.147125 2.294249 6.117999 5.544436 10.132935 2.485437 4.397311-3.441374 15.103809-18.927558 3.441374-22.177745z" fill="#FFFFFF" p-id="4474"></path><path d="M274.353996 248.734877C198.452577 233.822255 189.084391 315.459298 215.659447 329.415982c19.309933 10.324122 74.180732-6.691561 83.35773-25.619119 8.98581-19.118745 14.339059-47.414488-24.663181-55.061986z" fill="#B8937F" p-id="4475"></path><path d="M223.498133 241.660941c-23.898432 8.22106-22.560119 48.561613-9.75056 49.708738 14.530246 1.338312 40.149365-28.104556 46.267364-39.958178 4.588499-8.794623-26.957431-13.000747-36.516804-9.75056z" fill="#040000" p-id="4476"></path><path d="M232.101568 324.827483c-6.117999 2.676624-5.544436 35.943241 6.309186 41.105303 37.472741 15.868559 39.958178-39.00224 32.693055-47.605676-5.544436-6.882748-34.796117 4.588499-39.002241 6.500373z" fill="#E0DEDC" p-id="4477"></path><path d="M651.758028 514.676624c-21.412995 0.955937-37.663928 44.546677-32.310679 65.577297 2.867812 11.28006 24.663181 9.559373 21.604182 18.353995-5.162061 14.530246 33.266617 24.663181 40.53174 8.985811 36.899178-78.004481-10.132935-93.681852-29.825243-92.917103zM613.138163 950.966393c-75.901419-8.22106-98.843913 28.104556-84.887229 41.678865 14.721434 14.339059 72.84242 10.132935 104.579537 7.45631 12.618372-0.955937-0.573562-47.032114-19.692308-49.135175z" fill="#B8937F" p-id="4478"></path></svg>